<?xml version="1.0" encoding="UTF-8" standalone="no"?>
<!DOCTYPE svg PUBLIC "-//W3C//DTD SVG 1.1//EN" "http://www.w3.org/Graphics/SVG/1.1/DTD/svg11.dtd">
<svg width="100%" height="100%" viewBox="0 0 448 512" version="1.1" xmlns="http://www.w3.org/2000/svg" xmlns:xlink="http://www.w3.org/1999/xlink" xml:space="preserve" xmlns:serif="http://www.serif.com/" style="fill-rule:evenodd;clip-rule:evenodd;stroke-linejoin:round;stroke-miterlimit:2;">
    <path d="M439.8,200.5C432.1,169.6 417.5,146.3 386.4,146.3L346.3,146.3L346.3,193.7C346.3,230.5 315.1,261.5 279.5,261.5L172.7,261.5C143.5,261.5 119.3,286.5 119.3,315.8L119.3,417.6C119.3,446.6 144.5,463.6 172.7,471.9C206.5,481.8 239,483.6 279.5,471.9C306.4,464.1 332.9,448.4 332.9,417.6L332.9,376.9L226.2,376.9L226.2,363.3L386.4,363.3C417.5,363.3 429,341.6 439.8,309.1C451,275.6 450.5,243.4 439.8,200.5ZM286.2,404C297.3,404 306.3,413.1 306.3,424.3C306.3,435.6 297.3,444.7 286.2,444.7C275.2,444.7 266.1,435.5 266.1,424.3C266.2,413 275.2,404 286.2,404ZM167.8,248.1L274.6,248.1C304.3,248.1 328,223.6 328,193.8L328,91.9C328,62.9 303.6,41.2 274.6,36.3C238.8,30.4 199.9,30.7 167.8,36.4C122.6,44.4 114.4,61.1 114.4,92L114.4,132.7L221.3,132.7L221.3,146.3L74.3,146.3C43.2,146.3 16,165 7.5,200.5C-2.3,241.2 -2.7,266.6 7.5,309.1C15.1,340.7 33.2,363.3 64.3,363.3L101,363.3L101,314.5C101,279.2 131.5,248.1 167.8,248.1ZM161.1,105.5C150,105.5 141,96.4 141,85.2C141.1,73.9 150,64.8 161.1,64.8C172.1,64.8 181.2,74 181.2,85.2C181.2,96.4 172.2,105.5 161.1,105.5Z" style="fill:rgb(191,191,191);fill-rule:nonzero;"/>
</svg>
